<svg xmlns="http://www.w3.org/2000/svg" xmlns:xlink="http://www.w3.org/1999/xlink" viewBox="0,0,256,256" width="48px" height="48px" fill-rule="nonzero"><g fill-opacity="0" fill="#dddddd" fill-rule="nonzero" stroke="none" stroke-width="1" stroke-linecap="butt" stroke-linejoin="miter" stroke-miterlimit="10" stroke-dasharray="" stroke-dashoffset="0" font-family="none" font-weight="none" font-size="none" text-anchor="none" style="mix-blend-mode: normal"><path d="M0,256v-256h256v256z" id="bgRectangle"></path></g><g fill="#000000" fill-rule="nonzero" stroke="none" stroke-width="1" stroke-linecap="butt" stroke-linejoin="miter" stroke-miterlimit="10" stroke-dasharray="" stroke-dashoffset="0" font-family="none" font-weight="none" font-size="none" text-anchor="none" style="mix-blend-mode: normal"><g transform="scale(4,4)"><path d="M40.227,12c10.919,0 11.773,0.854 11.773,11.773v16.453c0,10.919 -0.854,11.774 -11.773,11.774h-16.454c-10.919,0 -11.773,-0.855 -11.773,-11.773v-16.454c0,-10.919 0.854,-11.773 11.773,-11.773zM43.851,39.792c0.723,0 1.914,-0.119 1.008,-1.628c-0.076,-0.125 -0.528,-1.115 -2.72,-3.152c-1.867,-1.74 -1.771,-1.931 0.691,-5.543c1.973,-2.895 2.269,-3.423 2.12,-3.906c-0.138,-0.445 -0.307,-0.618 -1.33,-0.618c-0.888,0 -3.105,-0.057 -3.822,-0.057c-1.083,0 -1.238,0.795 -2.761,3.891c-1.232,2.504 -1.868,3.251 -2.405,3.251c-0.613,0 -0.937,-0.639 -0.937,-3.021c0,-3.384 0.161,-4.802 -2.814,-4.802c-4.16,0 -4.351,0.976 -3.856,1.214c0.614,0.294 1.453,0.651 1.453,2.391c0,2.549 0.015,4.057 -0.72,4.057c-0.735,0 -1.121,-0.344 -2.695,-3.212c-1.854,-3.378 -1.844,-3.768 -3.152,-3.768c-1.056,0 -2.488,0 -3.419,0c-0.68,0 -0.875,0.554 -0.705,0.963c0.216,0.518 3.29,7.474 6.531,10.758c3.241,3.284 6.552,3.184 7.036,3.184c0.153,0 0.705,0 0.904,0c1.015,0 1.378,-0.579 1.465,-1.049c0.294,-1.587 0.389,-2.524 1.012,-2.524c0.595,0 0.961,0.368 3.639,3.066c0.33,0.332 0.619,0.507 1.49,0.507c0.874,-0.002 3.264,-0.002 3.987,-0.002z"></path></g></g></svg>