<svg xmlns="http://www.w3.org/2000/svg" xmlns:xlink="http://www.w3.org/1999/xlink" viewBox="0,0,256,256" width="100px" height="100px" fill-rule="nonzero"><g fill-opacity="0" fill="#dddddd" fill-rule="nonzero" stroke="none" stroke-width="1" stroke-linecap="butt" stroke-linejoin="miter" stroke-miterlimit="10" stroke-dasharray="" stroke-dashoffset="0" font-family="none" font-weight="none" font-size="none" text-anchor="none" style="mix-blend-mode: normal"><path d="M0,256v-256h256v256z" id="bgRectangle"></path></g><g fill="none" fill-rule="nonzero" stroke="none" stroke-width="1" stroke-linecap="butt" stroke-linejoin="miter" stroke-miterlimit="10" stroke-dasharray="" stroke-dashoffset="0" font-family="none" font-weight="none" font-size="none" text-anchor="none" style="mix-blend-mode: normal"><g transform="scale(2.56,2.56)"><path d="M13,27c-1.10457,0 -2,0.89543 -2,2c0,1.10457 0.89543,2 2,2c1.10457,0 2,-0.89543 2,-2c0,-1.10457 -0.89543,-2 -2,-2z" fill="#78a0cf"></path><path d="M77,12c-0.55228,0 -1,0.44772 -1,1c0,0.55228 0.44772,1 1,1c0.55228,0 1,-0.44772 1,-1c0,-0.55228 -0.44772,-1 -1,-1z" fill="#f1bc19"></path><path d="M50,13c-20.43454,0 -37,16.56546 -37,37c0,20.43454 16.56546,37 37,37c20.43454,0 37,-16.56546 37,-37c0,-20.43454 -16.56546,-37 -37,-37z" fill="#cee1f4"></path><path d="M83,11c-2.20914,0 -4,1.79086 -4,4c0,2.20914 1.79086,4 4,4c2.20914,0 4,-1.79086 4,-4c0,-2.20914 -1.79086,-4 -4,-4z" fill="#f1bc19"></path><path d="M87,22c-1.10457,0 -2,0.89543 -2,2c0,1.10457 0.89543,2 2,2c1.10457,0 2,-0.89543 2,-2c0,-1.10457 -0.89543,-2 -2,-2z" fill="#78a0cf"></path><path d="M81,74c-1.10457,0 -2,0.89543 -2,2c0,1.10457 0.89543,2 2,2c1.10457,0 2,-0.89543 2,-2c0,-1.10457 -0.89543,-2 -2,-2zM15,59c-2.20914,0 -4,1.79086 -4,4c0,2.20914 1.79086,4 4,4c2.20914,0 4,-1.79086 4,-4c0,-2.20914 -1.79086,-4 -4,-4z" fill="#fbcd59"></path><path d="M25,85c-1.10457,0 -2,0.89543 -2,2c0,1.10457 0.89543,2 2,2c1.10457,0 2,-0.89543 2,-2c0,-1.10457 -0.89543,-2 -2,-2z" fill="#78a0cf"></path><path d="M18.5,51c-1.38071,0 -2.5,1.11929 -2.5,2.5c0,1.38071 1.11929,2.5 2.5,2.5c1.38071,0 2.5,-1.11929 2.5,-2.5c0,-1.38071 -1.11929,-2.5 -2.5,-2.5z" fill="#ffffff"></path><path d="M21,66c-0.55228,0 -1,0.44772 -1,1c0,0.55228 0.44772,1 1,1c0.55228,0 1,-0.44772 1,-1c0,-0.55228 -0.44772,-1 -1,-1z" fill="#f1bc19"></path><path d="M80,33c-0.55228,0 -1,0.44772 -1,1c0,0.55228 0.44772,1 1,1c0.55228,0 1,-0.44772 1,-1c0,-0.55228 -0.44772,-1 -1,-1z" fill="#ffffff"></path><path d="M73.583,29.899c0.148,-5.448 -5.917,-5.17 -5.917,-5.17l-31.44,0.084c-2.405,0 -4.393,2.384 -4.393,4.6l-0.042,27.171l-6,0.012c0,1.645 0.022,13.473 0.042,13.683c0.404,4.354 5.331,3.947 5.331,3.947l36.086,0.037c1.948,0.19 3,-2.172 3,-3.525c0,-1.353 0,-40.752 0,-40.752z" fill="#fdfcee"></path><path d="M67.47,75c-0.095,0.001 -0.19,-0.004 -0.286,-0.013l-36.021,-0.033c-1.893,0.147 -5.656,-0.599 -6.027,-4.605c-0.028,-0.296 -0.045,-13.621 -0.045,-13.754c0,-0.401 0.313,-0.727 0.699,-0.728l5.303,-0.01l0.041,-26.446c0,-2.514 2.178,-5.327 5.093,-5.327l31.438,-0.083c0.108,0.002 3.256,-0.126 5.185,1.847c0.997,1.02 1.479,2.39 1.434,4.071c-0.01,0.387 -0.31,0.697 -0.682,0.707l-2.651,0.068v40.043c0,0.983 -0.456,2.473 -1.457,3.419c-0.587,0.556 -1.282,0.844 -2.024,0.844zM31.109,73.5l36.142,0.035c0.527,0.049 0.928,-0.101 1.301,-0.454c0.649,-0.613 0.999,-1.665 0.999,-2.343v-40.753c0,-0.395 0.303,-0.718 0.683,-0.728l2.63,-0.068c-0.087,-0.943 -0.421,-1.716 -0.995,-2.304c-1.5,-1.533 -4.142,-1.427 -4.17,-1.43l-31.47,0.085c-2.048,0 -3.695,2.118 -3.695,3.873l-0.042,27.172c-0.001,0.401 -0.313,0.726 -0.699,0.727l-5.301,0.01c0.003,3.077 0.023,12.505 0.04,12.913c0.332,3.574 4.407,3.286 4.577,3.265z" fill="#472b29"></path><path d="M32.708,57.058l-6.248,-0.016c-0.005,0.208 0.003,11.963 0.023,12.15c0.28,3.897 5.121,3.371 6.225,3.35zM47.5,45.5v10h-11v-12h9" fill="#fef6aa"></path><path d="M47.75,55.75h-11.5v-12.5h9.25c0.138,0 0.25,0.112 0.25,0.25c0,0.138 -0.112,0.25 -0.25,0.25h-8.75v11.5h10.5v-9.75c0,-0.138 0.112,-0.25 0.25,-0.25c0.138,0 0.25,0.112 0.25,0.25z" fill="#472b29"></path><path d="M54.5,67.5v-9h11v10h-8" fill="#fef6aa"></path><path d="M65.75,68.75h-8.25c-0.138,0 -0.25,-0.112 -0.25,-0.25c0,-0.138 0.112,-0.25 0.25,-0.25h7.75v-9.5h-10.5v8.75c0,0.138 -0.112,0.25 -0.25,0.25c-0.138,0 -0.25,-0.112 -0.25,-0.25v-9.25h11.5zM29.791,70.7c-0.348,0 -0.649,-0.259 -0.694,-0.613c-0.048,-0.384 0.224,-0.733 0.608,-0.781c0.905,-0.113 1.429,-0.404 1.429,-1.556v-12.833c0,-0.387 0.313,-0.7 0.7,-0.7c0.387,0 0.7,0.313 0.7,0.7v12.833c0,1.191 -0.461,2.67 -2.655,2.944c-0.03,0.004 -0.06,0.006 -0.088,0.006zM70.5,31.533h-19.25c-0.387,0 -0.7,-0.313 -0.7,-0.7c0,-0.387 0.313,-0.7 0.7,-0.7h19.25c0.387,0 0.7,0.313 0.7,0.7c0,0.387 -0.313,0.7 -0.7,0.7z" fill="#472b29"></path><g fill="#472b29"><path d="M47.5,35.917h-10.917c-0.138,0 -0.25,-0.112 -0.25,-0.25c0,-0.138 0.112,-0.25 0.25,-0.25h10.917c0.138,0 0.25,0.112 0.25,0.25c0,0.138 -0.112,0.25 -0.25,0.25z"></path></g><g fill="#472b29"><path d="M43.5,39.75h-7c-0.138,0 -0.25,-0.112 -0.25,-0.25c0,-0.138 0.112,-0.25 0.25,-0.25h7c0.138,0 0.25,0.112 0.25,0.25c0,0.138 -0.112,0.25 -0.25,0.25z"></path></g><g fill="#472b29"><path d="M57.5,35.917h-6.917c-0.138,0 -0.25,-0.112 -0.25,-0.25c0,-0.138 0.112,-0.25 0.25,-0.25h6.917c0.138,0 0.25,0.112 0.25,0.25c0,0.138 -0.112,0.25 -0.25,0.25z"></path></g><g fill="#472b29"><path d="M65.5,35.917h-5c-0.138,0 -0.25,-0.112 -0.25,-0.25c0,-0.138 0.112,-0.25 0.25,-0.25h5c0.138,0 0.25,0.112 0.25,0.25c0,0.138 -0.112,0.25 -0.25,0.25z"></path></g><g fill="#472b29"><path d="M65.5,39.75h-20c-0.138,0 -0.25,-0.112 -0.25,-0.25c0,-0.138 0.112,-0.25 0.25,-0.25h20c0.138,0 0.25,0.112 0.25,0.25c0,0.138 -0.112,0.25 -0.25,0.25z"></path></g><g fill="#472b29"><path d="M65.5,43.75h-15c-0.138,0 -0.25,-0.112 -0.25,-0.25c0,-0.138 0.112,-0.25 0.25,-0.25h15c0.138,0 0.25,0.112 0.25,0.25c0,0.138 -0.112,0.25 -0.25,0.25z"></path></g><g fill="#472b29"><path d="M65.5,47.75h-15c-0.138,0 -0.25,-0.112 -0.25,-0.25c0,-0.138 0.112,-0.25 0.25,-0.25h15c0.138,0 0.25,0.112 0.25,0.25c0,0.138 -0.112,0.25 -0.25,0.25z"></path></g><g fill="#472b29"><path d="M65.5,51.75h-15c-0.138,0 -0.25,-0.112 -0.25,-0.25c0,-0.138 0.112,-0.25 0.25,-0.25h15c0.138,0 0.25,0.112 0.25,0.25c0,0.138 -0.112,0.25 -0.25,0.25z"></path></g><g fill="#472b29"><path d="M65.5,55.75h-15c-0.138,0 -0.25,-0.112 -0.25,-0.25c0,-0.138 0.112,-0.25 0.25,-0.25h15c0.138,0 0.25,0.112 0.25,0.25c0,0.138 -0.112,0.25 -0.25,0.25z"></path></g><g fill="#472b29"><path d="M51.5,59.75h-15c-0.138,0 -0.25,-0.112 -0.25,-0.25c0,-0.138 0.112,-0.25 0.25,-0.25h15c0.138,0 0.25,0.112 0.25,0.25c0,0.138 -0.112,0.25 -0.25,0.25z"></path></g><g fill="#472b29"><path d="M51.5,63.75h-15c-0.138,0 -0.25,-0.112 -0.25,-0.25c0,-0.138 0.112,-0.25 0.25,-0.25h15c0.138,0 0.25,0.112 0.25,0.25c0,0.138 -0.112,0.25 -0.25,0.25z"></path></g><g fill="#472b29"><path d="M51.5,67.75h-15c-0.138,0 -0.25,-0.112 -0.25,-0.25c0,-0.138 0.112,-0.25 0.25,-0.25h15c0.138,0 0.25,0.112 0.25,0.25c0,0.138 -0.112,0.25 -0.25,0.25z"></path></g><g fill="#472b29"><path d="M47.417,31.533h-5.5c-0.387,0 -0.7,-0.313 -0.7,-0.7c0,-0.387 0.313,-0.7 0.7,-0.7h5.5c0.387,0 0.7,0.313 0.7,0.7c0,0.387 -0.314,0.7 -0.7,0.7z"></path></g></g></g></svg>